HIERARCHY
ROOT Hips
{
	OFFSET -0.001795 -0.223333 0.028219
	CHANNELS 6 Xposition Yposition Zposition Zrotation Yrotation Xrotation 
	JOINT LeftUpLeg
	{
		OFFSET 0.069520 -0.091406 -0.006815
		CHANNELS 3 Zrotation Yrotation Xrotation
		JOINT LeftLeg
		{
			OFFSET 0.034277 -0.375199 -0.004496
			CHANNELS 3 Zrotation Yrotation Xrotation
			JOINT LeftFoot
			{
				OFFSET -0.013596 -0.397961 -0.043693
				CHANNELS 3 Zrotation Yrotation Xrotation
				JOINT LeftToe
				{
					OFFSET 0.026358 -0.055791 0.119288
					CHANNELS 3 Zrotation Yrotation Xrotation
					End Site
					{
						OFFSET 0.000000 0.000000 0.000000
					}
				}
			}
		}
	}
	JOINT RightUpLeg
	{
		OFFSET -0.067670 -0.090522 -0.004320
		CHANNELS 3 Zrotation Yrotation Xrotation
		JOINT RightLeg
		{
			OFFSET -0.038290 -0.382569 -0.008850
			CHANNELS 3 Zrotation Yrotation Xrotation
			JOINT RightFoot
			{
				OFFSET 0.015774 -0.398415 -0.042312
				CHANNELS 3 Zrotation Yrotation Xrotation
				JOINT RightToe
				{
					OFFSET -0.025372 -0.048144 0.123348
					CHANNELS 3 Zrotation Yrotation Xrotation
					End Site
					{
						OFFSET 0.000000 0.000000 0.000000
					}
				}
			}
		}
	}
	JOINT Spine
	{
		OFFSET -0.002533 0.108963 -0.026696
		CHANNELS 3 Zrotation Yrotation Xrotation
		JOINT Spine1
		{
			OFFSET 0.005487 0.135180 0.001092
			CHANNELS 3 Zrotation Yrotation Xrotation
			JOINT Spine2
			{
				OFFSET 0.001457 0.052922 0.025425
				CHANNELS 3 Zrotation Yrotation Xrotation
				JOINT Neck
				{
					OFFSET -0.002778 0.213870 -0.042857
					CHANNELS 3 Zrotation Yrotation Xrotation
					JOINT Head
					{
						OFFSET 0.005152 0.064970 0.051349
						CHANNELS 3 Zrotation Yrotation Xrotation
						End Site
						{
							OFFSET 0.000000 0.000000 0.000000
						}
					}
				}
				JOINT LeftShoulder
				{
					OFFSET 0.078845 0.121749 -0.034090
					CHANNELS 3 Zrotation Yrotation Xrotation
					JOINT LeftArm
					{
						OFFSET 0.090977 0.030469 -0.008868
						CHANNELS 3 Zrotation Yrotation Xrotation
						JOINT LeftForeArm
						{
							OFFSET 0.259612 -0.012772 -0.027456
							CHANNELS 3 Zrotation Yrotation Xrotation
							JOINT LeftHand
							{
								OFFSET 0.249234 0.008986 -0.001171
								CHANNELS 3 Zrotation Yrotation Xrotation
								End Site
								{
									OFFSET 0.000000 0.000000 0.000000
								}
							}
						}
					}
				}
				JOINT RightShoulder
				{
					OFFSET -0.081759 0.118833 -0.038615
					CHANNELS 3 Zrotation Yrotation Xrotation
					JOINT RightArm
					{
						OFFSET -0.096012 0.032551 -0.009143
						CHANNELS 3 Zrotation Yrotation Xrotation
						JOINT RightForeArm
						{
							OFFSET -0.253742 -0.013329 -0.021401
							CHANNELS 3 Zrotation Yrotation Xrotation
							JOINT RightHand
							{
								OFFSET -0.255298 0.007772 -0.005559
								CHANNELS 3 Zrotation Yrotation Xrotation
								End Site
								{
									OFFSET 0.000000 0.000000 0.000000
								}
							}
						}
					}
				}
			}
		}
	}
}
MOTION
Frames: 5
Frame Time: 0.050000
-0.024687 0.934359 0.037565 0.122056 -8.453605 2.610767 8.455417 -0.018913 -1.780066 -3.654412 0.468447 0.646668 6.787309 14.843134 12.478182 0.000000 0.000000 0.000000 -10.533908 0.640120 -8.537531 6.659115 -0.625582 5.902565 -3.613756 -13.028968 13.563778 0.000000 0.000000 0.000000 7.352457 -1.998673 21.222438 -5.352489 1.804327 -20.224064 -2.477786 10.353900 25.713637 16.993735 -6.539709 -30.067603 0.000000 0.000000 0.000000 -12.753426 -20.917667 8.225308 -17.526067 -29.087994 -0.072242 99.501229 -69.554833 -76.237756 0.000000 0.000000 0.000000 22.381212 8.404467 5.311128 2.106975 37.390619 -2.730449 -44.169531 23.776575 -7.857819 0.000000 0.000000 0.000000 
-0.024906 0.934013 0.038006 0.244699 -8.218496 2.604368 8.449324 -0.022504 -1.705674 -3.630664 0.462562 0.427512 6.831587 14.931458 12.411987 0.000000 0.000000 0.000000 -10.631341 0.628504 -8.297272 6.604867 -0.621244 5.584047 -3.733021 -13.235523 13.689487 0.000000 0.000000 0.000000 7.326701 -1.983074 20.955787 -5.461601 1.836083 -20.467259 -2.419527 9.920665 25.949613 16.510532 -6.281328 -30.241674 0.000000 0.000000 0.000000 -13.267049 -20.377596 8.089885 -17.076175 -28.159810 -0.212078 97.779072 -68.222300 -73.146212 0.000000 0.000000 0.000000 22.999298 7.661358 4.825862 4.626030 36.021535 -2.159488 -46.008283 28.800128 -10.261571 0.000000 0.000000 0.000000 
-0.025080 0.933889 0.038355 0.320853 -8.175373 2.555882 8.384287 -0.021983 -1.623575 -3.567019 0.453542 0.292223 6.688856 14.712957 12.598008 0.000000 0.000000 0.000000 -10.610501 0.624682 -8.161042 6.506901 -0.609109 5.573284 -3.827924 -13.425272 13.834957 0.000000 0.000000 0.000000 7.363569 -1.965775 20.634405 -5.533271 1.859948 -20.332808 -2.507555 9.542788 25.680280 16.027109 -6.040910 -30.264923 0.000000 0.000000 0.000000 -13.891248 -19.636024 7.857642 -16.512428 -27.960307 -0.277764 92.477891 -66.645622 -66.507316 0.000000 0.000000 0.000000 23.569364 7.014002 4.353342 7.372625 34.837081 -1.597856 -47.538705 33.410005 -12.590464 0.000000 0.000000 0.000000 
-0.025273 0.933512 0.038615 0.496629 -8.052812 2.487118 8.297841 -0.021625 -1.454448 -3.456333 0.437951 0.242093 6.464463 14.347470 12.233280 0.000000 0.000000 0.000000 -10.669485 0.615104 -7.861017 6.406823 -0.597248 5.343318 -4.026178 -13.718473 13.680436 0.000000 0.000000 0.000000 7.287690 -1.929051 20.312339 -5.597736 1.879040 -20.444114 -2.503511 9.196323 25.822130 15.635400 -5.945798 -29.945246 0.000000 0.000000 0.000000 -14.030495 -19.320038 7.783792 -16.477677 -27.418023 -0.334444 89.060763 -64.761194 -61.523513 0.000000 0.000000 0.000000 24.202215 6.379491 3.906361 9.775433 33.764503 -1.176727 -49.340707 37.600929 -15.030976 0.000000 0.000000 0.000000 
-0.025451 0.933034 0.038676 0.587271 -8.136261 2.278734 8.374167 -0.005364 -1.079358 -3.504416 0.445002 0.002231 6.429979 14.302937 12.520850 0.000000 0.000000 0.000000 -10.634259 0.607925 -7.510267 6.402986 -0.593605 5.096459 -4.235238 -14.089667 13.710947 0.000000 0.000000 0.000000 7.410449 -1.922030 20.052286 -5.717500 1.915275 -20.329084 -2.653715 8.874799 25.677487 15.344894 -5.877280 -29.755605 0.000000 0.000000 0.000000 -14.384193 -18.867002 7.667354 -16.174699 -27.160516 -0.381874 84.503844 -63.162515 -56.025378 0.000000 0.000000 0.000000 24.624590 5.880512 3.491312 11.955078 32.895885 -0.814046 -51.607323 41.438334 -17.699282 0.000000 0.000000 0.000000 
